# xmcd
# 
# Track frame offsets:
#     150
#     5329
#     19003
#     34305
#     49303
#     64664
#     78332
#     102940
#     116580
#     130461
#     156362
#     172203
#     186417
#     202536
#     218120
#     231633
#     243630
#     257041
#     272974
#     288726
#     295762
#     308341
#     322050
# 
# Disc length: 4379
# 
# Revision: 1
# Processed by: cddbd v1.5.2PL0 Copyright (c) Steve Scherf et al.
# Submitted via: BonkEnc v1.0
# 
DISCID=5e111917
DTITLE=Dj Djalma - Planeta Cowboy
DYEAR=0
DGENRE=A Cappella
TTITLE0=Abertura
TTITLE1=Caso Marcado
TTITLE2=Fada
TTITLE3=Querendo te Encontrar
TTITLE4=Vai Mú
TTITLE5=Tá Bombando
TTITLE6=Amigo Apaixonado
TTITLE7=Agora Pode Fazer a Festa
TTITLE8=Pega Fogo Cabaré
TTITLE9=Moça
TTITLE10=Pode Chorar
TTITLE11=Fada
TTITLE12=Caso Marcado
TTITLE13=Por Toda Vida
TTITLE14=Quero Provar Que te Amo
TTITLE15=Risca Faca
TTITLE16=Já Era
TTITLE17=Vou Doar Meu Coração
TTITLE18=Fada
TTITLE19=Tomo Cerveja Gelada
TTITLE20=Galera do Boteco
TTITLE21=Rei da Zona
TTITLE22=Vinheta de Encerramento
EXTD=
EXTT0=
EXTT1=
EXTT2=
EXTT3=
EXTT4=
EXTT5=
EXTT6=
EXTT7=
EXTT8=
EXTT9=
EXTT10=
EXTT11=
EXTT12=
EXTT13=
EXTT14=
EXTT15=
EXTT16=
EXTT17=
EXTT18=
EXTT19=
EXTT20=
EXTT21=
EXTT22=
PLAYORDER=
